<?xml version="1.0" standalone="no"?>
<!DOCTYPE svg PUBLIC "-//W3C//DTD SVG 20010904//EN"
 "http://www.w3.org/TR/2001/REC-SVG-20010904/DTD/svg10.dtd">
<svg version="1.0" xmlns="http://www.w3.org/2000/svg"
 width="700.000000pt" height="700.000000pt" viewBox="0 0 700.000000 700.000000"
 preserveAspectRatio="xMidYMid meet">
<metadata>
Created by potrace 1.14, written by Peter Selinger 2001-2017
</metadata>
<g transform="translate(0.000000,700.000000) scale(0.100000,-0.100000)"
fill="#000000" stroke="none">
<path d="M3027 6344 c-1 -1 -29 -4 -62 -7 -210 -19 -449 -149 -581 -315 -123
-155 -194 -352 -195 -539 0 -61 -3 -73 -17 -74 -9 0 -24 -2 -33 -4 -9 -1 -49
-6 -90 -9 -41 -4 -108 -11 -149 -16 -41 -5 -97 -12 -125 -15 -27 -3 -81 -10
-120 -15 -38 -6 -86 -12 -105 -14 -86 -9 -201 -29 -269 -47 -336 -90 -581
-384 -619 -739 -12 -122 -6 -1274 8 -1349 23 -126 73 -240 159 -361 l45 -65 2
-630 1 -630 26 -98 c67 -255 236 -459 468 -566 106 -49 170 -62 449 -96 19 -2
53 -7 75 -9 60 -8 267 -28 420 -41 167 -14 151 -12 440 -30 366 -22 1075 -22
1475 0 30 1 109 6 175 9 66 4 136 8 155 11 19 2 73 7 120 10 47 4 99 8 115 9
17 2 62 6 100 10 71 6 142 14 205 21 167 20 289 36 306 39 12 2 37 7 57 10 50
8 162 51 227 88 224 125 383 358 427 621 3 18 6 311 7 652 l1 621 50 69 c84
116 143 259 161 390 10 66 11 1243 2 1320 -40 335 -255 609 -564 718 -78 28
-95 31 -274 56 -139 20 -220 30 -355 46 -27 3 -66 7 -85 10 -63 7 -174 18
-210 20 l-35 2 -2 63 c-10 377 -222 682 -572 819 -123 49 -174 53 -709 55
-277 1 -504 1 -505 0z m1056 -464 c161 -58 281 -215 289 -377 l3 -58 -40 1
c-22 1 -116 5 -210 10 -216 11 -1005 11 -1235 0 -96 -4 -195 -8 -220 -9 l-45
-2 3 55 c4 71 16 110 58 187 58 105 184 194 301 212 26 4 269 7 538 6 l490 0
68 -25z m107 -864 c36 -2 115 -8 175 -11 61 -4 126 -8 145 -10 19 -2 78 -6
130 -10 52 -3 109 -8 125 -10 17 -2 57 -7 90 -10 156 -15 259 -26 285 -30 24
-3 55 -7 165 -20 28 -4 75 -10 105 -15 30 -5 80 -12 110 -16 177 -20 308 -125
366 -294 17 -51 19 -95 20 -665 1 -665 -1 -683 -56 -779 -32 -56 -86 -112
-140 -143 -100 -59 -648 -208 -985 -268 -80 -14 -225 -38 -250 -40 -16 -2 -43
-6 -60 -9 -16 -2 -59 -8 -95 -11 -36 -4 -72 -9 -80 -10 -8 -2 -53 -6 -100 -10
-47 -4 -101 -9 -120 -11 -217 -22 -903 -22 -1040 0 -14 3 -63 7 -108 11 -46 3
-98 8 -115 10 -18 2 -57 6 -87 10 -30 3 -66 8 -80 10 -14 3 -41 7 -60 9 -369
45 -1104 229 -1246 311 -84 49 -154 150 -179 259 -8 36 -11 230 -10 666 1 560
3 619 19 665 39 111 120 202 222 250 49 23 238 58 439 80 28 3 88 10 135 15
79 10 103 12 220 24 25 3 79 8 120 12 41 3 91 7 110 9 31 3 159 12 285 20 22
2 112 6 200 10 88 4 162 9 164 11 5 5 1104 -4 1181 -10z m-2675 -2552 c83 -23
191 -52 240 -64 131 -31 246 -57 280 -64 17 -4 41 -9 55 -12 14 -3 39 -7 55
-9 17 -3 41 -7 55 -10 35 -7 187 -33 230 -39 98 -14 251 -33 325 -40 28 -3 73
-8 100 -11 50 -5 159 -12 310 -20 93 -5 594 -5 675 0 30 1 104 6 163 10 60 3
123 8 140 10 18 2 61 6 97 10 105 10 194 20 265 32 22 3 47 7 55 8 8 1 35 5
60 9 25 4 59 10 75 12 17 2 41 6 55 9 14 3 39 7 55 10 43 7 74 13 125 25 25 5
56 12 70 14 118 21 376 87 595 153 28 8 60 17 72 20 l21 5 0 -462 c-1 -255 -5
-485 -10 -513 -23 -122 -119 -246 -231 -297 -60 -27 -93 -35 -187 -45 -25 -3
-79 -10 -120 -15 -78 -10 -130 -15 -240 -25 -36 -4 -78 -8 -95 -10 -16 -2 -66
-6 -110 -10 -44 -3 -98 -8 -120 -10 -22 -2 -89 -7 -150 -10 -60 -4 -126 -8
-145 -10 -243 -24 -1242 -24 -1555 0 -27 2 -96 7 -151 10 -56 3 -119 7 -140 9
-22 2 -79 7 -128 11 -50 4 -97 8 -106 10 -9 2 -56 6 -106 10 -49 4 -96 9 -104
10 -8 2 -44 6 -80 10 -36 3 -76 8 -90 10 -14 3 -50 7 -81 10 -74 7 -160 30
-212 56 -94 49 -183 173 -205 289 -7 34 -11 230 -10 512 l1 458 26 -7 c14 -3
94 -25 176 -49z"/>
<path d="M3415 3481 c-80 -38 -120 -94 -130 -183 -20 -185 195 -306 347 -195
15 12 40 39 55 61 24 36 28 51 28 116 0 69 -3 79 -34 124 -59 86 -175 119
-266 77z"/>
</g>
</svg>
